<?xml version="1.0" encoding="utf-8"?>
<!-- Generator: Adobe Illustrator 19.2.1, SVG Export Plug-In . SVG Version: 6.00 Build 0)  -->
<svg version="1.1" id="layer" xmlns="http://www.w3.org/2000/svg" xmlns:xlink="http://www.w3.org/1999/xlink" x="0px" y="0px"
	 viewBox="0 0 652 652" style="enable-background:new 0 0 652 652;" xml:space="preserve">
<style type="text/css">
	.st0{fill-rule:evenodd;clip-rule:evenodd;fill:#EA5A06;}
</style>
<g>
	<path class="st0" d="M78.4,395.8c-38,0-63.3-27.9-63.3-68.4c0-40.3,27.2-68.7,63.3-68.7c37-0.1,63.2,27.3,63.2,68.7
		C141.6,367.8,116.7,395.8,78.4,395.8 M78.4,285.9c-22.7,0-32.3,21.1-32.3,41.3c0,20.1,10.3,40.8,32.2,40.8c22,0,32.1-21,32.1-40.9
		C110.4,306.6,100.9,285.9,78.4,285.9 M256,354c0.3,25.1-23.8,41.8-52.8,41.8c-57.6,0-53.7-42.9-54-46.4h30.5
		c-1.3,13.3,12.4,20.7,24.7,20.5c9.1-0.1,20.2-1.8,21.6-13.7c2.8-24-75-6.7-75-56.5c0-26.4,26.4-40.9,52.1-40.9
		c36.5,0,52.8,21.6,52.8,44.7h-31.4c0,0,1.5-18.4-22-18.4c-9.2,0-19.4,3.6-20.6,12.2C178.9,319.7,255.4,303.1,256,354 M350.4,348.6
		l21.7,43.6h-33.2l-19.3-41.5h-19.7v41.5h-30.3V262.3h66.2c23.3,0,40.8,19.5,40.8,44.7C376.6,326.7,367.6,340.7,350.4,348.6
		 M331.4,289.7h-31.5v35h30.6c8.9,0,15.4-8.6,15.4-17.3C345.8,299.2,340.4,289.7,331.4,289.7 M473.4,392.2l-7.7-22.5h-50.8
		l-7.9,22.5h-32.3l47.1-129.9h36.9l47,129.9H473.4z M456.5,342.6l-16.3-47.4l-16.3,47.4H456.5z M605.9,392.2v-69.6l-31.2,51.1
		l-31.1-51.1l0,69.6h-32.9V262.3h32.8l31.1,52.9l31.2-52.9h32.8l0,129.9H605.9z"/>
</g>
</svg>
